<svg width="27" height="27" viewBox="0 0 27 27" fill="none" xmlns="http://www.w3.org/2000/svg">
<rect width="27" height="27" fill="white"/>
<path d="M13.5 24.1875C13.5 24.4981 13.7521 24.7515 14.0624 24.7362C20.0143 24.4431 24.75 19.5246 24.75 13.5C24.75 7.28679 19.7132 2.25 13.5 2.25C7.28679 2.25 2.25 7.28679 2.25 13.5C2.25 18.7032 5.78238 23.0814 10.5799 24.3673C10.9234 24.4594 11.25 24.1924 11.25 23.8368V15.75H10.125C9.50367 15.75 9 15.2463 9 14.625C9 14.0037 9.50368 13.5 10.125 13.5H11.25V11.25C11.25 9.38604 12.761 7.875 14.625 7.875H15.75C16.3713 7.875 16.875 8.37868 16.875 9C16.875 9.62133 16.3713 10.125 15.75 10.125H14.625C14.0037 10.125 13.5 10.6287 13.5 11.25V13.5H15.75C16.3713 13.5 16.875 14.0037 16.875 14.625C16.875 15.2463 16.3713 15.75 15.75 15.75H13.5V24.1875Z" fill="black" fill-opacity="0.75"/>
</svg>
