<svg width="88" height="88" viewBox="0 0 88 88" fill="none" xmlns="http://www.w3.org/2000/svg">
<path d="M51.0623 61.3769L64.2097 40.2363C64.2527 40.1679 64.2887 40.096 64.3167 40.0214C66.587 36.3191 67.7858 32.0898 67.7858 27.7718C67.7858 14.8181 57.2471 4.27934 44.2935 4.27934C31.3398 4.27934 20.8003 14.8181 20.8003 27.7718C20.8003 32.0906 22.0008 36.3217 24.2729 40.0267C24.2992 40.0916 24.3299 40.1547 24.3667 40.2161L37.0424 61.4295C27.2026 62.8203 20.7319 66.8664 20.7319 71.7745C20.7319 77.8559 31.0663 82.6184 44.2584 82.6184C57.4506 82.6184 67.7849 77.855 67.7849 71.7745C67.7858 66.8436 61.0134 62.7072 51.0623 61.3769ZM26.6344 38.842C24.5386 35.5062 23.431 31.6785 23.431 27.7718C23.431 16.2685 32.7894 6.91007 44.2935 6.91007C55.7967 6.91007 65.155 16.2685 65.155 27.7718C65.155 31.6802 64.0475 35.508 61.9526 38.842C61.9087 38.9121 61.8728 38.9849 61.8439 39.0603L47.9537 61.3927C47.745 61.7128 47.7038 61.7856 47.4486 62.2047L43.941 67.845L26.7519 39.0788C26.7212 38.9972 26.6817 38.9174 26.6344 38.842ZM44.2593 79.9876C31.9449 79.9876 23.3635 75.6583 23.3635 71.7745C23.3635 68.2493 29.8263 64.9275 38.5191 63.8989L42.7896 71.0466C43.0255 71.4404 43.4481 71.6833 43.9068 71.6868C43.9103 71.6868 43.9147 71.6868 43.9182 71.6868C44.3724 71.6868 44.7951 71.4518 45.0353 71.0659L49.5251 63.8472C58.3564 64.8039 65.1542 68.2098 65.1542 71.7745C65.155 75.6592 56.5737 79.9876 44.2593 79.9876Z" fill="black"/>
<path d="M52.8011 27.7718C52.8011 23.0619 48.9691 19.2298 44.2592 19.2298C39.5494 19.2298 35.7173 23.0619 35.7173 27.7718C35.7173 32.4817 39.5494 36.3139 44.2592 36.3139C48.9691 36.3139 52.8011 32.4817 52.8011 27.7718ZM38.348 27.7718C38.348 24.5124 40.9998 21.8606 44.2592 21.8606C47.5187 21.8606 50.1704 24.5124 50.1704 27.7718C50.1704 31.0313 47.5195 33.6831 44.2592 33.6831C40.9989 33.6831 38.348 31.0313 38.348 27.7718Z" fill="black"/>
</svg>
