<svg width="88" height="88" viewBox="0 0 88 88" fill="none" xmlns="http://www.w3.org/2000/svg">
<g clip-path="url(#clip0_300_178)">
<path d="M80.2517 21.8831C80.0897 21.6659 79.8865 21.4828 79.6537 21.3441C79.4209 21.2055 79.163 21.1141 78.8949 21.0751C78.6267 21.0362 78.3535 21.0505 78.0909 21.1171C77.8283 21.1838 77.5813 21.3016 77.3642 21.4637L44.0961 46.2962C43.9771 46.3855 43.8324 46.4338 43.6836 46.4338C43.5349 46.4338 43.3901 46.3855 43.2711 46.2962L10.6561 21.3537C10.4408 21.1894 10.1952 21.0691 9.93338 20.9997C9.67156 20.9303 9.39864 20.9132 9.13019 20.9492C8.86174 20.9853 8.60303 21.0739 8.36882 21.21C8.1346 21.346 7.92949 21.5269 7.76517 21.7422C7.60085 21.9575 7.48056 22.2031 7.41115 22.4649C7.34174 22.7267 7.32459 22.9997 7.36066 23.2681C7.39673 23.5366 7.48532 23.7953 7.62137 24.0295C7.75743 24.2637 7.93828 24.4688 8.15361 24.6331L33.7974 44.2475L8.43548 63.36C8.217 63.523 8.03275 63.7274 7.89325 63.9615C7.75376 64.1957 7.66176 64.455 7.62249 64.7248C7.58323 64.9945 7.59748 65.2693 7.66443 65.5335C7.73137 65.7978 7.84971 66.0462 8.01267 66.2647C8.17563 66.4832 8.38003 66.6674 8.6142 66.8069C8.84837 66.9464 9.10772 67.0384 9.37745 67.0777C9.64717 67.1169 9.92199 67.1027 10.1862 67.0357C10.4504 66.9688 10.6989 66.8505 10.9174 66.6875L37.2005 46.8462L40.7617 49.5962C41.5921 50.2319 42.6069 50.5797 43.6526 50.5872C44.6983 50.5946 45.718 50.2612 46.5574 49.6375L50.2974 46.8462L76.8899 66.6875C77.107 66.8496 77.3539 66.9673 77.6165 67.0339C77.8792 67.1005 78.1523 67.1148 78.4205 67.0758C78.6886 67.0369 78.9464 66.9455 79.1792 66.8069C79.4121 66.6684 79.6153 66.4853 79.7774 66.2681C79.9394 66.051 80.0571 65.8041 80.1237 65.5414C80.1904 65.2788 80.2046 65.0056 80.1657 64.7375C80.1267 64.4694 80.0354 64.2116 79.8968 63.9787C79.7582 63.7459 79.5751 63.5427 79.358 63.3806L53.7417 44.2406L79.8324 24.75C80.2651 24.4232 80.5517 23.9392 80.6302 23.4026C80.7087 22.866 80.5727 22.3202 80.2517 21.8831Z" fill="black"/>
<path d="M77.6875 13.0625H10.3125C7.57746 13.0625 4.95443 14.149 3.02046 16.083C1.08649 18.0169 0 20.64 0 23.375L0 64.625C0 67.36 1.08649 69.9831 3.02046 71.917C4.95443 73.851 7.57746 74.9375 10.3125 74.9375H77.6875C80.4225 74.9375 83.0456 73.851 84.9795 71.917C86.9135 69.9831 88 67.36 88 64.625V23.375C88 20.64 86.9135 18.0169 84.9795 16.083C83.0456 14.149 80.4225 13.0625 77.6875 13.0625ZM83.875 64.625C83.875 66.266 83.2231 67.8398 82.0627 69.0002C80.9023 70.1606 79.3285 70.8125 77.6875 70.8125H10.3125C8.67147 70.8125 7.09766 70.1606 5.93728 69.0002C4.7769 67.8398 4.125 66.266 4.125 64.625V23.375C4.125 21.734 4.7769 20.1602 5.93728 18.9998C7.09766 17.8394 8.67147 17.1875 10.3125 17.1875H77.6875C79.3285 17.1875 80.9023 17.8394 82.0627 18.9998C83.2231 20.1602 83.875 21.734 83.875 23.375V64.625Z" fill="black"/>
</g>
<defs>
<clipPath id="clip0_300_178">
<rect width="88" height="88" fill="white"/>
</clipPath>
</defs>
</svg>
