<svg width="88" height="88" viewBox="0 0 88 88" fill="none" xmlns="http://www.w3.org/2000/svg">
<g clip-path="url(#clip0_300_169)">
<path d="M67.7845 86.6311C66.9624 86.6288 66.143 86.5387 65.3401 86.3622C50.0541 83.2001 35.9716 75.786 24.7134 64.9733C13.6955 54.1368 6.05396 40.3397 2.71339 25.2511C2.3195 23.3706 2.41618 21.4204 2.99412 19.5881C3.57207 17.7558 4.61184 16.1031 6.01339 14.7889L15.7912 5.37778C16.2906 4.90548 16.884 4.54381 17.5326 4.31636C18.1813 4.08891 18.8706 4.0008 19.5556 4.05778C20.2659 4.13188 20.9513 4.36068 21.5637 4.72809C22.176 5.0955 22.7004 5.59261 23.1001 6.18444L35.3223 24.2489C35.7806 24.9498 36.0019 25.7794 35.9535 26.6154C35.9051 27.4515 35.5896 28.25 35.0534 28.8933L28.9178 36.2267C31.3614 41.6349 34.822 46.5228 39.1112 50.6244C43.3726 54.8748 48.4094 58.2687 53.9489 60.6222L61.5512 54.5844C62.1897 54.0798 62.9666 53.7815 63.7788 53.7291C64.5909 53.6767 65.3998 53.8727 66.0978 54.2911L84.5534 66.22C85.1867 66.5981 85.7263 67.1147 86.1316 67.731C86.537 68.3473 86.7976 69.0473 86.8941 69.7786C86.9905 70.5099 86.9201 71.2536 86.6883 71.9538C86.4566 72.6541 86.0693 73.2929 85.5556 73.8222L76.0223 83.2578C74.9394 84.3354 73.654 85.1882 72.2403 85.7671C70.8265 86.346 69.3122 86.6397 67.7845 86.6311ZM19.1645 8.89778L9.38673 18.3089C8.59828 19.0436 8.01463 19.9708 7.69318 20.9994C7.37173 22.0281 7.32356 23.1227 7.55339 24.1756C10.6596 38.3341 17.7998 51.2901 28.1112 61.4778C38.7059 71.6504 51.9582 78.624 66.3423 81.5955C67.431 81.8232 68.5593 81.7771 69.6258 81.4614C70.6924 81.1457 71.6639 80.5702 72.4534 79.7867L81.9867 70.3511L64.1667 58.8378L56.0023 65.34C55.6897 65.5874 55.3214 65.7546 54.9294 65.827C54.5375 65.8994 54.1337 65.8749 53.7534 65.7555C46.9742 63.2578 40.8307 59.2929 35.7623 54.1444C30.5198 49.2487 26.4505 43.2325 23.8578 36.5444C23.7482 36.1396 23.7445 35.7133 23.8473 35.3066C23.95 34.8999 24.1557 34.5264 24.4445 34.2222L31.0445 26.3267L19.1645 8.89778Z" fill="black"/>
</g>
<defs>
<clipPath id="clip0_300_169">
<rect width="88" height="88" fill="white"/>
</clipPath>
</defs>
</svg>
