<svg width="32" height="32" viewBox="0 0 32 32" fill="none" xmlns="http://www.w3.org/2000/svg">
<path d="M2.66669 10.6666C2.66669 9.2521 3.22859 7.89554 4.22878 6.89535C5.22898 5.89515 6.58553 5.33325 8.00002 5.33325H24C25.4145 5.33325 26.7711 5.89515 27.7713 6.89535C28.7715 7.89554 29.3334 9.2521 29.3334 10.6666V21.3333C29.3334 22.7477 28.7715 24.1043 27.7713 25.1045C26.7711 26.1047 25.4145 26.6666 24 26.6666H8.00002C6.58553 26.6666 5.22898 26.1047 4.22878 25.1045C3.22859 24.1043 2.66669 22.7477 2.66669 21.3333V10.6666Z" stroke="#074F71FF" stroke-width="2.66667" stroke-linecap="round" stroke-linejoin="round"/>
<path d="M13.3334 12L20 16L13.3334 20V12Z" stroke="#074F71FF" stroke-width="2.66667" stroke-linecap="round" stroke-linejoin="round"/>
</svg>
